<?xml version="1.0" encoding="iso-8859-1"?>
<!-- Generator: Adobe Illustrator 19.0.0, SVG Export Plug-In . SVG Version: 6.00 Build 0)  -->
<svg version="1.1" id="Layer_1" xmlns="http://www.w3.org/2000/svg" xmlns:xlink="http://www.w3.org/1999/xlink" x="0px" y="0px"
	 viewBox="0 0 550 550" style="enable-background:new 0 0 512 512;" xml:space="preserve">
<g>
	
		<rect x="185.93" y="68.783" transform="matrix(-0.7071 -0.7071 0.7071 -0.7071 231.5949 376.4682)" style="fill:#4D4D4D;" width="15.673" height="142.972"/>
	
		<rect x="246.755" y="132.433" transform="matrix(-0.7071 -0.7071 0.7071 -0.7071 444.0861 464.4859)" style="fill:#4D4D4D;" width="142.972" height="15.673"/>
</g>
<rect y="184.564" style="fill:#F7CE4D;" width="512" height="273.763"/>
<g>
	<path style="fill:#4D4D4D;" d="M119.277,318.82h20.237c3.462,0,5.459,3.329,5.459,6.922c0,3.062-1.73,6.657-5.459,6.657h-20.237
		v26.759h37.676c3.462,0,5.459,3.594,5.459,7.722c0,3.594-1.73,7.455-5.459,7.455h-47.394c-3.861,0-7.589-1.864-7.589-5.459v-86.403
		c0-3.594,3.727-5.459,7.589-5.459h47.394c3.728,0,5.459,3.861,5.459,7.455c0,4.127-1.997,7.722-5.459,7.722h-37.676L119.277,318.82
		L119.277,318.82z"/>
	<path style="fill:#4D4D4D;" d="M225.778,337.991l-19.437,34.215c-0.932,1.598-2.662,2.796-4.793,2.796
		c-4.659,0-11.316-3.861-11.316-8.654c0-0.932,0.399-1.997,1.066-3.195l23.032-37.543l-22.233-37.41
		c-0.798-1.331-1.197-2.529-1.197-3.727c0-4.659,6.124-8.121,11.05-8.121c2.662,0,4.527,1.464,5.725,3.727l18.106,32.618
		l18.106-32.618c1.331-2.263,3.063-3.727,5.858-3.727c4.926,0,11.05,3.462,11.05,8.121c0,1.198-0.399,2.396-1.197,3.727
		l-22.233,37.41l23.032,37.543c0.666,1.199,0.932,2.263,0.932,3.195c0,4.792-6.523,8.654-11.316,8.654
		c-2.131,0-3.861-1.199-4.659-2.796L225.778,337.991z"/>
	<path style="fill:#4D4D4D;" d="M295.135,282.341c0-3.727,4.26-5.325,8.654-5.325c4.26,0,8.654,1.598,8.654,5.325v86.535
		c0,3.594-4.394,5.459-8.654,5.459c-4.394,0-8.654-1.864-8.654-5.459V282.341z"/>
	<path style="fill:#4D4D4D;" d="M405.671,277.017c3.727,0,5.459,3.994,5.459,7.722c0,4.127-1.997,7.854-5.459,7.854h-19.437v76.285
		c0,3.594-4.394,5.459-8.654,5.459c-4.393,0-8.653-1.864-8.653-5.459v-76.285h-19.57c-3.462,0-5.459-3.594-5.459-7.854
		c0-3.727,1.73-7.722,5.459-7.722L405.671,277.017L405.671,277.017z"/>
</g>
<circle style="fill:#32A8EA;" cx="256" cy="78.037" r="24.364"/>
<g>
</g>
<g>
</g>
<g>
</g>
<g>
</g>
<g>
</g>
<g>
</g>
<g>
</g>
<g>
</g>
<g>
</g>
<g>
</g>
<g>
</g>
<g>
</g>
<g>
</g>
<g>
</g>
<g>
</g>
</svg>
