<svg id="_x33_0" enable-background="new 0 0 64 64" height="50" viewBox="0 0 64 64" width="50" xmlns="http://www.w3.org/2000/svg" xmlns:xlink="http://www.w3.org/1999/xlink"><linearGradient id="SVGID_1_" gradientUnits="userSpaceOnUse" x1="32" x2="32" y1="63" y2="1"><stop offset="0" stop-color="#9f2fff"/><stop offset="1" stop-color="#0bb1d3"/></linearGradient><path d="m13 14c0 .552-.448 1-1 1s-1-.448-1-1 .448-1 1-1 1 .448 1 1zm50 21c0 3.703-.805 7.412-2.318 10.795 1.39.889 2.318 2.437 2.318 4.205 0 2.757-2.243 5-5 5-3.859 0-7-3.141-7-7 0-.78.121-1.525.359-2.24l1.385-4.152c.17-.51.256-1.042.256-1.581 0-1.632-.771-3.112-2.016-4.039-.038 1.601-.223 3.201-.57 4.763l-1.28 5.758c-.089.398-.134.808-.134 1.218 0 .718.135 1.419.401 2.085l1.238 3.096c.239.595.36 1.225.36 1.87 0 1.056-.411 2.048-1.157 2.794l-.842.842v2.586c0 1.103-.897 2-2 2h-6c-1.103 0-2-.897-2-2v-2c0-1.103.897-2 2-2h.18l.726-3.631c.063-.311.094-.629.094-.945 0-1.749-.95-3.363-2.479-4.213l-1.378-.765c-.936-.52-1.752-1.192-2.459-1.954l-2.274.758c-1.49.498-3.044.75-4.617.75-.299 0-.596-.033-.895-.052l-.135.338c-.424 1.061-.375 2.254.136 3.274l.604 1.208c.325.651.497 1.379.497 2.108 0 .934-.273 1.837-.791 2.613l-.443.665c.723.301 1.234 1.015 1.234 1.846v2c0 1.103-.897 2-2 2h-6c-1.103 0-2-.897-2-2v-2c0-1.103.897-2 2-2v-6.384c0-1.794-.134-3.569-.394-5.321l-5.089 3.817c-.394.296-.664.724-.761 1.208l-.609 3.046c.514.363.853.959.853 1.634v2c0 1.103-.897 2-2 2h-6c-1.103 0-2-.897-2-2v-2c0-1.103.897-2 2-2h.117l.681-5.443c.161-1.284.673-2.496 1.479-3.505l5.669-7.086c-.267-.81-.482-1.641-.605-2.498l-.822-5.756c-.248-1.738-.807-3.382-1.63-4.916-.513.35-1.003.733-1.445 1.175l-.776.776c-.809.808-1.884 1.253-3.027 1.253-1.34 0-2.62-.64-3.425-1.712l-1.555-2.074c-.426-.566-.661-1.27-.661-1.982 0-1.107.55-2.135 1.471-2.748l.428-.285c.867-.578 1.571-1.377 2.038-2.31l2.59-5.179c-1.478-.588-2.527-2.025-2.527-3.71 0-2.206 1.794-4 4-4h6.234l.502-.837c.43-.717 1.217-1.163 2.054-1.163 1.185 0 2.204.885 2.371 2.058l.003.019c4.456.568 7.836 4.336 7.836 8.923v4c0 1.913.609 3.762 1.725 5.295.389-.184.818-.295 1.275-.295 2.587 0 4.697 1.983 4.95 4.504 1.516-.326 3.061-.504 4.609-.508h.037c1.245 0 2.45.216 3.575.625l.828-.621c1.722-1.29 3.853-2 6.001-2 6.617 0 12 5.383 12 12zm-42.539-29.843.485 3.394c.682.799 1.054 1.802 1.054 2.863v10.982c0 1.563.909 2.954 2.296 3.609-.19-.636-.296-1.308-.296-2.005v-1h2v1c0 2.757 2.243 5 5 5 1.654 0 3-1.346 3-3s-1.346-3-3-3c-.552 0-1 .448-1 1s.448 1 1 1h1v2h-1c-1.654 0-3-1.346-3-3 0-.461.113-.892.299-1.283-1.483-1.921-2.299-4.275-2.299-6.717v-4c0-3.374-2.352-6.174-5.539-6.843zm-13.461 1.843c0 1.103.897 2 2 2h.166c-.103-.303-.168-.62-.168-.949l.002-1.053 2 .004-.002 1.052c0 .252.098.49.276.669s.417.277.67.277c.605 0 1.056-.448 1.056-.999 0-.837.228-1.658.657-2.374l.377-.627h-5.034c-1.103 0-2 .897-2 2zm6.002 50-.002-2h-6v2zm6.48-13.361c-1.525-1.265-2.764-2.82-3.661-4.563l-4.981 6.226c-.577.721-.942 1.586-1.058 2.503l-.649 5.195h3.048l.615-3.072c.193-.967.734-1.825 1.522-2.416zm7.52 17.361-.002-2h-6v2zm19.998-2h-6v2h6zm2-23.595c0-2.502-1.103-4.855-3.024-6.457-1.537-1.281-3.394-1.953-5.301-1.953-.009 0-.018 0-.026 0-1.713.006-3.341.208-4.924.604l-.012.003c-.672 1.969-2.519 3.398-4.713 3.398-2.075 0-3.937-.913-5.22-2.353l-1.677-.559c-2.455-.817-4.103-3.105-4.103-5.692v-10.982c0-.645-.251-1.251-.707-1.707l-.235-.235-.877-6.132c-.046-.331-.559-.434-.729-.148l-2.08 3.466c-.243.405-.372.868-.372 1.342 0 1.652-1.346 2.996-3 2.999v.001h-2.382l-2.893 5.784c-.622 1.244-1.562 2.309-2.718 3.079l-.427.285c-.363.243-.58.648-.58 1.084 0 .28.093.558.26.78l1.556 2.075c.789 1.052 2.509 1.174 3.438.244l.776-.776c.914-.914 1.964-1.671 3.119-2.248l2.192-1.097c1.023-.511 1.659-1.539 1.659-2.682v-.528h2v.528c0 1.905-1.059 3.618-2.764 4.472l-1.61.806c.948 1.753 1.591 3.634 1.874 5.622l.822 5.756c.377 2.643 1.586 5.068 3.407 6.957-.439-1.609-.983-3.195-1.648-4.747l1.838-.787c2.045 4.768 3.081 9.819 3.081 15.009v6.384h2.465l1.08-1.62c.298-.446.455-.967.455-1.504 0-.419-.099-.839-.286-1.213l-.604-1.208c-.766-1.531-.84-3.321-.204-4.911l.236-.591c.569-1.424.858-2.923.858-4.457v-2.496h2v2.496c0 1.188-.162 2.355-.456 3.492 1.429.026 2.871-.181 4.234-.635l1.629-.543c-.904-1.52-1.407-3.276-1.407-5.106v-1.704h2v1.704c0 2.903 1.577 5.583 4.115 6.994l1.377.765c2.164 1.202 3.508 3.485 3.508 5.961 0 .447-.045.897-.133 1.338l-.647 3.238h4.366l.843-.843c.368-.368.571-.858.571-1.38 0-.389-.073-.768-.217-1.126l-1.239-3.098c-.361-.902-.544-1.853-.544-2.826 0-.555.061-1.11.181-1.651l1.28-5.759c.357-1.61.539-3.262.539-4.912zm9.811 9.677c1.428-3.155 2.189-6.62 2.189-10.082 0-5.514-4.486-10-10-10-1.719 0-3.424.568-4.801 1.6l-.028.021c.35.225.691.463 1.013.731.615.513 1.161 1.08 1.634 1.691 5.747.419 10.182 5.132 10.182 10.957v1h-2v-1c0-4.263-2.903-7.804-6.88-8.75.332.757.568 1.551.711 2.369 2.51 1.114 4.169 3.594 4.169 6.381 0 .78-.121 1.525-.359 2.24l-1.385 4.152c-.17.51-.256 1.043-.256 1.582 0 2.783 2.243 5.026 5 5.026 1.654 0 3-1.346 3-3s-1.346-3-3-3c-.552 0-1 .448-1 1s.448 1 1 1h1v2h-1c-1.654 0-3-1.346-3-3s1.346-3 3-3c.278 0 .545.038.811.082z" fill="url(#SVGID_1_)"/></svg>